# xmcd
# 
# Track frame offsets:
#     150
#     21997
#     38502
#     58020
#     78777
#     102977
#     125322
#     142295
#     161007
#     178952
#     198522
#     218240
#     235882
#     265635
#     283995
# 
# Disc length: 4032
# 
# Revision: 1
# Processed by: cddbd v1.5.2PL0 Copyright (c) Steve Scherf et al.
# Submitted via: BonkEnc v1.0rc1
# 
DISCID=dd0fbe0f
DTITLE=渡辺真知子 - GOLDEN J-POP - THE BEST 渡辺真知子 [Disc 2]
DYEAR=1997
DGENRE=JPop
TTITLE0=Espressoでお別れ
TTITLE1=気になるあいつ
TTITLE2=哀愁トラベラー
TTITLE3=メソポタミア・ダンス
TTITLE4=寒い夏
TTITLE5=アンタ
TTITLE6=海のテーマ〜海につれていって
TTITLE7=フォグ・ランプ
TTITLE8=Memories
TTITLE9=Feel Free
TTITLE10=Welcome To Yokosuka
TTITLE11=メリーさんは知らない
TTITLE12=愛することだけすればよかった
TTITLE13=TAHIBALI
TTITLE14=迷い道(96年ヴァージョン)
EXTD=YEAR: 1997
EXTT0=
EXTT1=
EXTT2=
EXTT3=
EXTT4=
EXTT5=
EXTT6=
EXTT7=
EXTT8=
EXTT9=
EXTT10=
EXTT11=
EXTT12=
EXTT13=
EXTT14=
PLAYORDER=
